# xmcd
#
# Track frame offsets:
# 150
# 12885
# 23875
# 35402
# 46822
# 56350
# 67552
# 78702
# 89367
# 100929
#
# Disc length: 1481 seconds
#
#
# Revision: 0
# Processed by: cddbd v1.5.1PL0 Copyright (c) Steve Scherf et al.
# Submitted via: FreeRIP 2.92 
#
DISCID=6d05c70a
DTITLE=Various Artist - I walk the line - 50's Country western
DYEAR=1900
DGENRE=
TTITLE0=I Walk the Line
TTITLE1=Send Me the Pillow You Dream on
TTITLE2=Walkin' After Midnight
TTITLE3=Crazy Arms
TTITLE4=I don't Believe You've Met my Baby
TTITLE5=Waterloo
TTITLE6=No Help Wanted
TTITLE7=Gonna Find Me a Bluebird
TTITLE8=Down Yonder
TTITLE9=Gone
EXTD=
EXTT0=Johnny Cash
EXTT1=Hank Locklin
EXTT2=Patsy Cline
EXTT3=Ray Price
EXTT4=The Louvin Brothers
EXTT5=Stonewall Jackson
EXTT6=Bill Carlisle
EXTT7=Marvin Rainwater
EXTT8=Del Wood
EXTT9=Ferlin Husky
PLAYORDER=
